<svg width="30" height="30" viewBox="0 0 30 30" fill="none" xmlns="http://www.w3.org/2000/svg">
<path d="M15.9375 8.75C15.9375 8.23223 15.5178 7.8125 15 7.8125C14.4822 7.8125 14.0625 8.23223 14.0625 8.75V14.0625H8.75C8.23223 14.0625 7.8125 14.4822 7.8125 15C7.8125 15.5178 8.23223 15.9375 8.75 15.9375H14.0625V21.25C14.0625 21.7678 14.4822 22.1875 15 22.1875C15.5178 22.1875 15.9375 21.7678 15.9375 21.25V15.9375H21.25C21.7678 15.9375 22.1875 15.5178 22.1875 15C22.1875 14.4822 21.7678 14.0625 21.25 14.0625H15.9375V8.75Z" fill="white"/>
</svg>
