<svg width="16" height="16" viewBox="0 0 16 16" fill="none" xmlns="http://www.w3.org/2000/svg">
<path d="M6.50979 10.6702C6.37876 10.6699 6.25308 10.6182 6.15979 10.5262L4.13029 8.52621C4.04423 8.43169 3.99764 8.30781 4.00009 8.18001C4.00254 8.05221 4.05384 7.9302 4.14345 7.83905C4.23307 7.7479 4.35419 7.69453 4.48193 7.68991C4.60967 7.68529 4.73433 7.72977 4.83029 7.81421L6.50529 9.4642L11.1253 4.82021C11.1713 4.77234 11.2263 4.73411 11.2873 4.70774C11.3482 4.68138 11.4138 4.66742 11.4801 4.66666C11.5465 4.6659 11.6124 4.67837 11.6739 4.70334C11.7354 4.7283 11.7913 4.76527 11.8384 4.81207C11.8855 4.85888 11.9227 4.91459 11.9481 4.97596C11.9734 5.03732 11.9862 5.10312 11.9858 5.1695C11.9854 5.23588 11.9718 5.30152 11.9458 5.36259C11.9198 5.42366 11.8819 5.47894 11.8343 5.52521L6.86429 10.5252C6.81763 10.5715 6.7623 10.6081 6.70147 10.633C6.64065 10.6579 6.57551 10.6705 6.50979 10.6702Z" fill="white"/>
</svg>
