<svg width="24" height="24" viewBox="0 0 24 24" fill="none" xmlns="http://www.w3.org/2000/svg">
<path fill-rule="evenodd" clip-rule="evenodd" d="M6.29303 6.29301C6.48056 6.10553 6.73487 6.00022 7.00003 6.00022C7.26519 6.00022 7.5195 6.10553 7.70703 6.29301L12 10.586L16.293 6.29301C16.3853 6.19749 16.4956 6.12131 16.6176 6.0689C16.7396 6.01649 16.8709 5.98891 17.0036 5.98775C17.1364 5.9866 17.2681 6.0119 17.391 6.06218C17.5139 6.11246 17.6255 6.18672 17.7194 6.28061C17.8133 6.3745 17.8876 6.48615 17.9379 6.60905C17.9881 6.73195 18.0134 6.86363 18.0123 6.99641C18.0111 7.12919 17.9835 7.26041 17.9311 7.38241C17.8787 7.50441 17.8025 7.61476 17.707 7.707L13.414 12L17.707 16.293C17.8892 16.4816 17.99 16.7342 17.9877 16.9964C17.9854 17.2586 17.8803 17.5094 17.6948 17.6948C17.5094 17.8802 17.2586 17.9854 16.9964 17.9877C16.7342 17.99 16.4816 17.8892 16.293 17.707L12 13.414L7.70703 17.707C7.51843 17.8892 7.26583 17.99 7.00363 17.9877C6.74143 17.9854 6.49062 17.8802 6.30521 17.6948C6.1198 17.5094 6.01463 17.2586 6.01236 16.9964C6.01008 16.7342 6.11087 16.4816 6.29303 16.293L10.586 12L6.29303 7.707C6.10556 7.51948 6.00024 7.26517 6.00024 7C6.00024 6.73484 6.10556 6.48053 6.29303 6.29301Z" fill="#3B3A63"/>
</svg>
