<svg width="24" height="24" viewBox="0 0 24 24" fill="none" xmlns="http://www.w3.org/2000/svg">
<path fill-rule="evenodd" clip-rule="evenodd" d="M4.54884 3.16383C4.16082 2.90857 3.63419 2.95159 3.29289 3.29289C2.90237 3.68342 2.90237 4.31658 3.29289 4.70711L5.33026 6.74447C4.77141 7.29792 4.28088 7.92148 3.8722 8.60261L2.65499 10.6313C2.14951 11.4738 2.14951 12.5262 2.65499 13.3687L3.8722 15.3974C4.79966 16.9432 6.14869 18.1924 7.76104 18.9986C10.4295 20.3328 13.5704 20.3328 16.2389 18.9986C16.5343 18.8509 16.8208 18.6883 17.0976 18.5118L19.2929 20.7071C19.6834 21.0976 20.3166 21.0976 20.7071 20.7071C21.0976 20.3166 21.0976 19.6834 20.7071 19.2929L20.1504 18.7362C20.0944 18.6994 20.0413 18.6563 19.9921 18.6071L4.54884 3.16383ZM5.58718 9.6316C5.91131 9.09139 6.3007 8.59707 6.7445 8.15871L8.55373 9.96795C8.20189 10.5636 8 11.2584 8 12.0005C8 14.2096 9.79043 16 11.9995 16C12.7414 16 13.4362 15.7981 14.0319 15.4461L15.6396 17.0538C15.5425 17.1079 15.4441 17.1599 15.3444 17.2097C13.239 18.2624 10.7609 18.2624 8.65546 17.2097C7.38332 16.5737 6.31895 15.588 5.58718 14.3684L4.36998 12.3397C4.24451 12.1306 4.24451 11.8694 4.36997 11.6603L5.58718 9.6316ZM10 12.0005C10 11.8211 10.0236 11.6473 10.0677 11.482L12.518 13.9322C12.3526 13.9764 12.1788 14 11.9995 14C10.895 14 10 13.105 10 12.0005Z" fill="#152C70"/>
<path d="M19.9285 15.715C19.9969 15.6106 20.0633 15.5047 20.1277 15.3974L21.3449 13.3687C21.8504 12.5262 21.8504 11.4738 21.3449 10.6313L20.1277 8.60261C19.2002 7.05684 17.8512 5.8076 16.2389 5.00142C13.9028 3.83339 11.2046 3.6879 8.77838 4.56494L10.3896 6.17612C12.045 5.81114 13.7956 6.01586 15.3444 6.79028C16.6166 7.42635 17.681 8.41199 18.4127 9.6316L19.6299 11.6603C19.7554 11.8694 19.7554 12.1306 19.6299 12.3397L18.4761 14.2627L19.9285 15.715Z" fill="#152C70"/>
<path d="M15.9941 11.7806C15.8839 9.74555 14.2533 8.1161 12.2194 8.00594L15.9941 11.7806Z" fill="#152C70"/>
</svg>
